<mxfile host="Electron" agent="Mozilla/5.0 (X11; Linux x86_64) AppleWebKit/537.36 (KHTML, like Gecko) draw.io/26.0.9 Chrome/128.0.6613.186 Electron/32.2.5 Safari/537.36" version="26.0.9">
  <diagram name="Page-1" id="E7ItXtVxkb0EkNfJRyOl">
    <mxGraphModel dx="2318" dy="1134" grid="0" gridSize="10" guides="1" tooltips="1" connect="1" arrows="1" fold="1" page="1" pageScale="1" pageWidth="850" pageHeight="1100" math="0" shadow="0">
      <root>
        <mxCell id="0" />
        <mxCell id="1" parent="0" />
        <mxCell id="luiZvTGX7wpIHtlbnvlm-1" value="&lt;div&gt;Tape&amp;lt;T&amp;gt;&lt;/div&gt;" style="swimlane;fontStyle=1;align=center;verticalAlign=top;childLayout=stackLayout;horizontal=1;startSize=26;horizontalStack=0;resizeParent=1;resizeParentMax=0;resizeLast=0;collapsible=1;marginBottom=0;whiteSpace=wrap;html=1;" parent="1" vertex="1">
          <mxGeometry x="-412" y="264" width="192" height="86" as="geometry" />
        </mxCell>
        <mxCell id="luiZvTGX7wpIHtlbnvlm-2" value="- manager_: GraphManager&amp;lt;T&amp;gt;" style="text;strokeColor=none;fillColor=none;align=left;verticalAlign=top;spacingLeft=4;spacingRight=4;overflow=hidden;rotatable=0;points=[[0,0.5],[1,0.5]];portConstraint=eastwest;whiteSpace=wrap;html=1;" parent="luiZvTGX7wpIHtlbnvlm-1" vertex="1">
          <mxGeometry y="26" width="192" height="26" as="geometry" />
        </mxCell>
        <mxCell id="luiZvTGX7wpIHtlbnvlm-3" value="" style="line;strokeWidth=1;fillColor=none;align=left;verticalAlign=middle;spacingTop=-1;spacingLeft=3;spacingRight=3;rotatable=0;labelPosition=right;points=[];portConstraint=eastwest;strokeColor=inherit;" parent="luiZvTGX7wpIHtlbnvlm-1" vertex="1">
          <mxGeometry y="52" width="192" height="8" as="geometry" />
        </mxCell>
        <mxCell id="luiZvTGX7wpIHtlbnvlm-4" value="+ var(T): Var&amp;lt;T&amp;gt;" style="text;strokeColor=none;fillColor=none;align=left;verticalAlign=top;spacingLeft=4;spacingRight=4;overflow=hidden;rotatable=0;points=[[0,0.5],[1,0.5]];portConstraint=eastwest;whiteSpace=wrap;html=1;" parent="luiZvTGX7wpIHtlbnvlm-1" vertex="1">
          <mxGeometry y="60" width="192" height="26" as="geometry" />
        </mxCell>
        <mxCell id="luiZvTGX7wpIHtlbnvlm-6" value="GraphManager&amp;lt;T&amp;gt;" style="swimlane;fontStyle=1;align=center;verticalAlign=top;childLayout=stackLayout;horizontal=1;startSize=26;horizontalStack=0;resizeParent=1;resizeParentMax=0;resizeLast=0;collapsible=1;marginBottom=0;whiteSpace=wrap;html=1;" parent="1" vertex="1">
          <mxGeometry x="-550" y="470" width="480" height="138" as="geometry" />
        </mxCell>
        <mxCell id="luiZvTGX7wpIHtlbnvlm-7" value="&lt;div&gt;- nodes_: std::vector&amp;lt;std::shared_ptr&amp;lt;Node&amp;lt;T&amp;gt;&amp;gt;&amp;gt;&lt;/div&gt;" style="text;strokeColor=none;fillColor=none;align=left;verticalAlign=top;spacingLeft=4;spacingRight=4;overflow=hidden;rotatable=0;points=[[0,0.5],[1,0.5]];portConstraint=eastwest;whiteSpace=wrap;html=1;" parent="luiZvTGX7wpIHtlbnvlm-6" vertex="1">
          <mxGeometry y="26" width="480" height="26" as="geometry" />
        </mxCell>
        <mxCell id="luiZvTGX7wpIHtlbnvlm-8" value="" style="line;strokeWidth=1;fillColor=none;align=left;verticalAlign=middle;spacingTop=-1;spacingLeft=3;spacingRight=3;rotatable=0;labelPosition=right;points=[];portConstraint=eastwest;strokeColor=inherit;" parent="luiZvTGX7wpIHtlbnvlm-6" vertex="1">
          <mxGeometry y="52" width="480" height="8" as="geometry" />
        </mxCell>
        <mxCell id="luiZvTGX7wpIHtlbnvlm-9" value="+ new_ind_node(T): Var&amp;lt;T&amp;gt;" style="text;strokeColor=none;fillColor=none;align=left;verticalAlign=top;spacingLeft=4;spacingRight=4;overflow=hidden;rotatable=0;points=[[0,0.5],[1,0.5]];portConstraint=eastwest;whiteSpace=wrap;html=1;" parent="luiZvTGX7wpIHtlbnvlm-6" vertex="1">
          <mxGeometry y="60" width="480" height="26" as="geometry" />
        </mxCell>
        <mxCell id="luiZvTGX7wpIHtlbnvlm-10" value="+ new_dep_node(in first: Node&amp;lt;T&amp;gt;): Var&lt;span style=&quot;background-color: transparent; color: light-dark(rgb(0, 0, 0), rgb(255, 255, 255));&quot;&gt;&amp;lt;T&amp;gt;&lt;/span&gt;" style="text;strokeColor=none;fillColor=none;align=left;verticalAlign=top;spacingLeft=4;spacingRight=4;overflow=hidden;rotatable=0;points=[[0,0.5],[1,0.5]];portConstraint=eastwest;whiteSpace=wrap;html=1;" parent="luiZvTGX7wpIHtlbnvlm-6" vertex="1">
          <mxGeometry y="86" width="480" height="26" as="geometry" />
        </mxCell>
        <mxCell id="luiZvTGX7wpIHtlbnvlm-11" value="+ new_dep_node(in first: Node&amp;lt;T&amp;gt;, in second: Node&amp;lt;T&amp;gt;): Var&amp;lt;T&amp;gt;" style="text;strokeColor=none;fillColor=none;align=left;verticalAlign=top;spacingLeft=4;spacingRight=4;overflow=hidden;rotatable=0;points=[[0,0.5],[1,0.5]];portConstraint=eastwest;whiteSpace=wrap;html=1;" parent="luiZvTGX7wpIHtlbnvlm-6" vertex="1">
          <mxGeometry y="112" width="480" height="26" as="geometry" />
        </mxCell>
        <mxCell id="luiZvTGX7wpIHtlbnvlm-13" value="template tricks to automatically &lt;br&gt;implement functions, &lt;br&gt;for example, to invoke a method:&lt;br&gt;new_node&amp;lt;SinNode&amp;gt;(...)" style="text;html=1;align=center;verticalAlign=middle;resizable=0;points=[];autosize=1;strokeColor=default;fillColor=none;" parent="1" vertex="1">
          <mxGeometry x="-810" y="500" width="200" height="70" as="geometry" />
        </mxCell>
        <mxCell id="luiZvTGX7wpIHtlbnvlm-15" value="" style="endArrow=none;dashed=1;html=1;rounded=0;exitX=0.997;exitY=0.557;exitDx=0;exitDy=0;exitPerimeter=0;entryX=0;entryY=0.5;entryDx=0;entryDy=0;" parent="1" source="luiZvTGX7wpIHtlbnvlm-13" target="luiZvTGX7wpIHtlbnvlm-10" edge="1">
          <mxGeometry width="50" height="50" relative="1" as="geometry">
            <mxPoint x="-490" y="560" as="sourcePoint" />
            <mxPoint x="-440" y="510" as="targetPoint" />
          </mxGeometry>
        </mxCell>
        <mxCell id="luiZvTGX7wpIHtlbnvlm-17" value="Node&amp;lt;T&amp;gt;" style="swimlane;fontStyle=3;align=center;verticalAlign=top;childLayout=stackLayout;horizontal=1;startSize=26;horizontalStack=0;resizeParent=1;resizeParentMax=0;resizeLast=0;collapsible=1;marginBottom=0;whiteSpace=wrap;html=1;" parent="1" vertex="1">
          <mxGeometry x="220" y="466" width="160" height="138" as="geometry" />
        </mxCell>
        <mxCell id="luiZvTGX7wpIHtlbnvlm-18" value="&lt;div&gt;# value_:T&lt;/div&gt;" style="text;strokeColor=none;fillColor=none;align=left;verticalAlign=top;spacingLeft=4;spacingRight=4;overflow=hidden;rotatable=0;points=[[0,0.5],[1,0.5]];portConstraint=eastwest;whiteSpace=wrap;html=1;" parent="luiZvTGX7wpIHtlbnvlm-17" vertex="1">
          <mxGeometry y="26" width="160" height="26" as="geometry" />
        </mxCell>
        <mxCell id="luiZvTGX7wpIHtlbnvlm-21" value="&lt;div&gt;# grad_:T&lt;/div&gt;" style="text;strokeColor=none;fillColor=none;align=left;verticalAlign=top;spacingLeft=4;spacingRight=4;overflow=hidden;rotatable=0;points=[[0,0.5],[1,0.5]];portConstraint=eastwest;whiteSpace=wrap;html=1;" parent="luiZvTGX7wpIHtlbnvlm-17" vertex="1">
          <mxGeometry y="52" width="160" height="26" as="geometry" />
        </mxCell>
        <mxCell id="luiZvTGX7wpIHtlbnvlm-19" value="" style="line;strokeWidth=1;fillColor=none;align=left;verticalAlign=middle;spacingTop=-1;spacingLeft=3;spacingRight=3;rotatable=0;labelPosition=right;points=[];portConstraint=eastwest;strokeColor=inherit;" parent="luiZvTGX7wpIHtlbnvlm-17" vertex="1">
          <mxGeometry y="78" width="160" height="8" as="geometry" />
        </mxCell>
        <mxCell id="luiZvTGX7wpIHtlbnvlm-20" value="&lt;div&gt;+ backward()&lt;/div&gt;" style="text;strokeColor=none;fillColor=none;align=left;verticalAlign=top;spacingLeft=4;spacingRight=4;overflow=hidden;rotatable=0;points=[[0,0.5],[1,0.5]];portConstraint=eastwest;whiteSpace=wrap;html=1;fontStyle=2" parent="luiZvTGX7wpIHtlbnvlm-17" vertex="1">
          <mxGeometry y="86" width="160" height="26" as="geometry" />
        </mxCell>
        <mxCell id="luiZvTGX7wpIHtlbnvlm-22" value="&lt;div&gt;+ forward()&lt;/div&gt;" style="text;strokeColor=none;fillColor=none;align=left;verticalAlign=top;spacingLeft=4;spacingRight=4;overflow=hidden;rotatable=0;points=[[0,0.5],[1,0.5]];portConstraint=eastwest;whiteSpace=wrap;html=1;fontStyle=2" parent="luiZvTGX7wpIHtlbnvlm-17" vertex="1">
          <mxGeometry y="112" width="160" height="26" as="geometry" />
        </mxCell>
        <mxCell id="luiZvTGX7wpIHtlbnvlm-23" value="" style="endArrow=open;html=1;endSize=12;startArrow=diamondThin;startSize=14;startFill=1;edgeStyle=orthogonalEdgeStyle;align=left;verticalAlign=bottom;rounded=0;exitX=1;exitY=0.5;exitDx=0;exitDy=0;entryX=-0.01;entryY=0.119;entryDx=0;entryDy=0;entryPerimeter=0;curved=0;" parent="1" source="luiZvTGX7wpIHtlbnvlm-7" target="luiZvTGX7wpIHtlbnvlm-17" edge="1">
          <mxGeometry x="-1" y="3" relative="1" as="geometry">
            <mxPoint x="-140" y="690" as="sourcePoint" />
            <mxPoint x="20" y="690" as="targetPoint" />
          </mxGeometry>
        </mxCell>
        <mxCell id="luiZvTGX7wpIHtlbnvlm-24" value="0..*" style="edgeLabel;html=1;align=center;verticalAlign=middle;resizable=0;points=[];" parent="luiZvTGX7wpIHtlbnvlm-23" vertex="1" connectable="0">
          <mxGeometry x="0.9512" y="1" relative="1" as="geometry">
            <mxPoint x="-21" as="offset" />
          </mxGeometry>
        </mxCell>
        <mxCell id="luiZvTGX7wpIHtlbnvlm-29" value="IndNode&amp;lt;T&amp;gt;" style="swimlane;fontStyle=1;align=center;verticalAlign=top;childLayout=stackLayout;horizontal=1;startSize=26;horizontalStack=0;resizeParent=1;resizeParentMax=0;resizeLast=0;collapsible=1;marginBottom=0;whiteSpace=wrap;html=1;" parent="1" vertex="1">
          <mxGeometry x="33" y="738" width="171" height="86" as="geometry" />
        </mxCell>
        <mxCell id="luiZvTGX7wpIHtlbnvlm-32" value="" style="line;strokeWidth=1;fillColor=none;align=left;verticalAlign=middle;spacingTop=-1;spacingLeft=3;spacingRight=3;rotatable=0;labelPosition=right;points=[];portConstraint=eastwest;strokeColor=inherit;" parent="luiZvTGX7wpIHtlbnvlm-29" vertex="1">
          <mxGeometry y="26" width="171" height="8" as="geometry" />
        </mxCell>
        <mxCell id="luiZvTGX7wpIHtlbnvlm-33" value="&lt;div&gt;+ backward() override&lt;br&gt;&lt;/div&gt;" style="text;strokeColor=none;fillColor=none;align=left;verticalAlign=top;spacingLeft=4;spacingRight=4;overflow=hidden;rotatable=0;points=[[0,0.5],[1,0.5]];portConstraint=eastwest;whiteSpace=wrap;html=1;fontStyle=0" parent="luiZvTGX7wpIHtlbnvlm-29" vertex="1">
          <mxGeometry y="34" width="171" height="26" as="geometry" />
        </mxCell>
        <mxCell id="luiZvTGX7wpIHtlbnvlm-34" value="&lt;div&gt;+ forward() override&lt;/div&gt;" style="text;strokeColor=none;fillColor=none;align=left;verticalAlign=top;spacingLeft=4;spacingRight=4;overflow=hidden;rotatable=0;points=[[0,0.5],[1,0.5]];portConstraint=eastwest;whiteSpace=wrap;html=1;fontStyle=0" parent="luiZvTGX7wpIHtlbnvlm-29" vertex="1">
          <mxGeometry y="60" width="171" height="26" as="geometry" />
        </mxCell>
        <mxCell id="luiZvTGX7wpIHtlbnvlm-35" value="Extends" style="endArrow=block;endSize=16;endFill=0;html=1;rounded=0;exitX=0.5;exitY=0;exitDx=0;exitDy=0;entryX=0.296;entryY=0.936;entryDx=0;entryDy=0;entryPerimeter=0;" parent="1" source="luiZvTGX7wpIHtlbnvlm-29" target="luiZvTGX7wpIHtlbnvlm-22" edge="1">
          <mxGeometry width="160" relative="1" as="geometry">
            <mxPoint x="229" y="710" as="sourcePoint" />
            <mxPoint x="389" y="710" as="targetPoint" />
          </mxGeometry>
        </mxCell>
        <mxCell id="luiZvTGX7wpIHtlbnvlm-43" value="UnaryNode&amp;lt;T&amp;gt;" style="swimlane;fontStyle=3;align=center;verticalAlign=top;childLayout=stackLayout;horizontal=1;startSize=26;horizontalStack=0;resizeParent=1;resizeParentMax=0;resizeLast=0;collapsible=1;marginBottom=0;whiteSpace=wrap;html=1;" parent="1" vertex="1">
          <mxGeometry x="291" y="738" width="160" height="112" as="geometry" />
        </mxCell>
        <mxCell id="luiZvTGX7wpIHtlbnvlm-44" value="&lt;div&gt;# first_; Node&amp;lt;T&amp;gt;*&lt;br&gt;&lt;/div&gt;" style="text;strokeColor=none;fillColor=none;align=left;verticalAlign=top;spacingLeft=4;spacingRight=4;overflow=hidden;rotatable=0;points=[[0,0.5],[1,0.5]];portConstraint=eastwest;whiteSpace=wrap;html=1;" parent="luiZvTGX7wpIHtlbnvlm-43" vertex="1">
          <mxGeometry y="26" width="160" height="26" as="geometry" />
        </mxCell>
        <mxCell id="luiZvTGX7wpIHtlbnvlm-46" value="" style="line;strokeWidth=1;fillColor=none;align=left;verticalAlign=middle;spacingTop=-1;spacingLeft=3;spacingRight=3;rotatable=0;labelPosition=right;points=[];portConstraint=eastwest;strokeColor=inherit;" parent="luiZvTGX7wpIHtlbnvlm-43" vertex="1">
          <mxGeometry y="52" width="160" height="8" as="geometry" />
        </mxCell>
        <mxCell id="luiZvTGX7wpIHtlbnvlm-47" value="&lt;div&gt;+ backward()&lt;/div&gt;" style="text;strokeColor=none;fillColor=none;align=left;verticalAlign=top;spacingLeft=4;spacingRight=4;overflow=hidden;rotatable=0;points=[[0,0.5],[1,0.5]];portConstraint=eastwest;whiteSpace=wrap;html=1;fontStyle=2" parent="luiZvTGX7wpIHtlbnvlm-43" vertex="1">
          <mxGeometry y="60" width="160" height="26" as="geometry" />
        </mxCell>
        <mxCell id="luiZvTGX7wpIHtlbnvlm-48" value="&lt;div&gt;+ forward()&lt;/div&gt;" style="text;strokeColor=none;fillColor=none;align=left;verticalAlign=top;spacingLeft=4;spacingRight=4;overflow=hidden;rotatable=0;points=[[0,0.5],[1,0.5]];portConstraint=eastwest;whiteSpace=wrap;html=1;fontStyle=2" parent="luiZvTGX7wpIHtlbnvlm-43" vertex="1">
          <mxGeometry y="86" width="160" height="26" as="geometry" />
        </mxCell>
        <mxCell id="luiZvTGX7wpIHtlbnvlm-50" value="Extends" style="endArrow=block;endSize=16;endFill=0;html=1;rounded=0;exitX=0.5;exitY=0;exitDx=0;exitDy=0;entryX=0.708;entryY=1.067;entryDx=0;entryDy=0;entryPerimeter=0;" parent="1" source="luiZvTGX7wpIHtlbnvlm-43" target="luiZvTGX7wpIHtlbnvlm-22" edge="1">
          <mxGeometry width="160" relative="1" as="geometry">
            <mxPoint x="129" y="748" as="sourcePoint" />
            <mxPoint x="277" y="612" as="targetPoint" />
          </mxGeometry>
        </mxCell>
        <mxCell id="luiZvTGX7wpIHtlbnvlm-57" value="BinaryNode&amp;lt;T&amp;gt;" style="swimlane;fontStyle=3;align=center;verticalAlign=top;childLayout=stackLayout;horizontal=1;startSize=26;horizontalStack=0;resizeParent=1;resizeParentMax=0;resizeLast=0;collapsible=1;marginBottom=0;whiteSpace=wrap;html=1;" parent="1" vertex="1">
          <mxGeometry x="513" y="738" width="160" height="138" as="geometry" />
        </mxCell>
        <mxCell id="luiZvTGX7wpIHtlbnvlm-58" value="&lt;div&gt;# first_; Node&amp;lt;T&amp;gt;*&lt;br&gt;&lt;/div&gt;" style="text;strokeColor=none;fillColor=none;align=left;verticalAlign=top;spacingLeft=4;spacingRight=4;overflow=hidden;rotatable=0;points=[[0,0.5],[1,0.5]];portConstraint=eastwest;whiteSpace=wrap;html=1;" parent="luiZvTGX7wpIHtlbnvlm-57" vertex="1">
          <mxGeometry y="26" width="160" height="26" as="geometry" />
        </mxCell>
        <mxCell id="luiZvTGX7wpIHtlbnvlm-63" value="&lt;div&gt;# second_; Node&amp;lt;T&amp;gt;*&lt;br&gt;&lt;/div&gt;" style="text;strokeColor=none;fillColor=none;align=left;verticalAlign=top;spacingLeft=4;spacingRight=4;overflow=hidden;rotatable=0;points=[[0,0.5],[1,0.5]];portConstraint=eastwest;whiteSpace=wrap;html=1;" parent="luiZvTGX7wpIHtlbnvlm-57" vertex="1">
          <mxGeometry y="52" width="160" height="26" as="geometry" />
        </mxCell>
        <mxCell id="luiZvTGX7wpIHtlbnvlm-59" value="" style="line;strokeWidth=1;fillColor=none;align=left;verticalAlign=middle;spacingTop=-1;spacingLeft=3;spacingRight=3;rotatable=0;labelPosition=right;points=[];portConstraint=eastwest;strokeColor=inherit;" parent="luiZvTGX7wpIHtlbnvlm-57" vertex="1">
          <mxGeometry y="78" width="160" height="8" as="geometry" />
        </mxCell>
        <mxCell id="luiZvTGX7wpIHtlbnvlm-60" value="&lt;div&gt;+ backward()&lt;/div&gt;" style="text;strokeColor=none;fillColor=none;align=left;verticalAlign=top;spacingLeft=4;spacingRight=4;overflow=hidden;rotatable=0;points=[[0,0.5],[1,0.5]];portConstraint=eastwest;whiteSpace=wrap;html=1;fontStyle=2" parent="luiZvTGX7wpIHtlbnvlm-57" vertex="1">
          <mxGeometry y="86" width="160" height="26" as="geometry" />
        </mxCell>
        <mxCell id="luiZvTGX7wpIHtlbnvlm-61" value="&lt;div&gt;+ forward()&lt;/div&gt;" style="text;strokeColor=none;fillColor=none;align=left;verticalAlign=top;spacingLeft=4;spacingRight=4;overflow=hidden;rotatable=0;points=[[0,0.5],[1,0.5]];portConstraint=eastwest;whiteSpace=wrap;html=1;fontStyle=2" parent="luiZvTGX7wpIHtlbnvlm-57" vertex="1">
          <mxGeometry y="112" width="160" height="26" as="geometry" />
        </mxCell>
        <mxCell id="luiZvTGX7wpIHtlbnvlm-64" value="Extends" style="endArrow=block;endSize=16;endFill=0;html=1;rounded=0;exitX=0.5;exitY=0;exitDx=0;exitDy=0;entryX=0.965;entryY=1.026;entryDx=0;entryDy=0;entryPerimeter=0;" parent="1" source="luiZvTGX7wpIHtlbnvlm-57" target="luiZvTGX7wpIHtlbnvlm-22" edge="1">
          <mxGeometry width="160" relative="1" as="geometry">
            <mxPoint x="381" y="748" as="sourcePoint" />
            <mxPoint x="343" y="616" as="targetPoint" />
          </mxGeometry>
        </mxCell>
        <mxCell id="luiZvTGX7wpIHtlbnvlm-65" value="AddNode&amp;lt;T&amp;gt;" style="swimlane;fontStyle=1;align=center;verticalAlign=top;childLayout=stackLayout;horizontal=1;startSize=26;horizontalStack=0;resizeParent=1;resizeParentMax=0;resizeLast=0;collapsible=1;marginBottom=0;whiteSpace=wrap;html=1;" parent="1" vertex="1">
          <mxGeometry x="521" y="960" width="160" height="86" as="geometry" />
        </mxCell>
        <mxCell id="luiZvTGX7wpIHtlbnvlm-68" value="" style="line;strokeWidth=1;fillColor=none;align=left;verticalAlign=middle;spacingTop=-1;spacingLeft=3;spacingRight=3;rotatable=0;labelPosition=right;points=[];portConstraint=eastwest;strokeColor=inherit;" parent="luiZvTGX7wpIHtlbnvlm-65" vertex="1">
          <mxGeometry y="26" width="160" height="8" as="geometry" />
        </mxCell>
        <mxCell id="luiZvTGX7wpIHtlbnvlm-69" value="&lt;div&gt;+ backward() override&lt;br&gt;&lt;/div&gt;" style="text;strokeColor=none;fillColor=none;align=left;verticalAlign=top;spacingLeft=4;spacingRight=4;overflow=hidden;rotatable=0;points=[[0,0.5],[1,0.5]];portConstraint=eastwest;whiteSpace=wrap;html=1;fontStyle=0" parent="luiZvTGX7wpIHtlbnvlm-65" vertex="1">
          <mxGeometry y="34" width="160" height="26" as="geometry" />
        </mxCell>
        <mxCell id="luiZvTGX7wpIHtlbnvlm-70" value="&lt;div&gt;+ forward() override&lt;/div&gt;" style="text;strokeColor=none;fillColor=none;align=left;verticalAlign=top;spacingLeft=4;spacingRight=4;overflow=hidden;rotatable=0;points=[[0,0.5],[1,0.5]];portConstraint=eastwest;whiteSpace=wrap;html=1;fontStyle=0" parent="luiZvTGX7wpIHtlbnvlm-65" vertex="1">
          <mxGeometry y="60" width="160" height="26" as="geometry" />
        </mxCell>
        <mxCell id="luiZvTGX7wpIHtlbnvlm-71" value="Extends" style="endArrow=block;endSize=16;endFill=0;html=1;rounded=0;exitX=0.5;exitY=0;exitDx=0;exitDy=0;entryX=0.491;entryY=1.188;entryDx=0;entryDy=0;entryPerimeter=0;" parent="1" source="luiZvTGX7wpIHtlbnvlm-65" target="luiZvTGX7wpIHtlbnvlm-61" edge="1">
          <mxGeometry width="160" relative="1" as="geometry">
            <mxPoint x="272" y="775" as="sourcePoint" />
            <mxPoint x="432" y="775" as="targetPoint" />
          </mxGeometry>
        </mxCell>
        <mxCell id="luiZvTGX7wpIHtlbnvlm-72" value="SinNode&amp;lt;T&amp;gt;" style="swimlane;fontStyle=1;align=center;verticalAlign=top;childLayout=stackLayout;horizontal=1;startSize=26;horizontalStack=0;resizeParent=1;resizeParentMax=0;resizeLast=0;collapsible=1;marginBottom=0;whiteSpace=wrap;html=1;" parent="1" vertex="1">
          <mxGeometry x="296" y="966" width="160" height="86" as="geometry" />
        </mxCell>
        <mxCell id="luiZvTGX7wpIHtlbnvlm-73" value="" style="line;strokeWidth=1;fillColor=none;align=left;verticalAlign=middle;spacingTop=-1;spacingLeft=3;spacingRight=3;rotatable=0;labelPosition=right;points=[];portConstraint=eastwest;strokeColor=inherit;" parent="luiZvTGX7wpIHtlbnvlm-72" vertex="1">
          <mxGeometry y="26" width="160" height="8" as="geometry" />
        </mxCell>
        <mxCell id="luiZvTGX7wpIHtlbnvlm-74" value="&lt;div&gt;+ backward() override&lt;br&gt;&lt;/div&gt;" style="text;strokeColor=none;fillColor=none;align=left;verticalAlign=top;spacingLeft=4;spacingRight=4;overflow=hidden;rotatable=0;points=[[0,0.5],[1,0.5]];portConstraint=eastwest;whiteSpace=wrap;html=1;fontStyle=0" parent="luiZvTGX7wpIHtlbnvlm-72" vertex="1">
          <mxGeometry y="34" width="160" height="26" as="geometry" />
        </mxCell>
        <mxCell id="luiZvTGX7wpIHtlbnvlm-75" value="&lt;div&gt;+ forward() override&lt;/div&gt;" style="text;strokeColor=none;fillColor=none;align=left;verticalAlign=top;spacingLeft=4;spacingRight=4;overflow=hidden;rotatable=0;points=[[0,0.5],[1,0.5]];portConstraint=eastwest;whiteSpace=wrap;html=1;fontStyle=0" parent="luiZvTGX7wpIHtlbnvlm-72" vertex="1">
          <mxGeometry y="60" width="160" height="26" as="geometry" />
        </mxCell>
        <mxCell id="luiZvTGX7wpIHtlbnvlm-76" value="Extends" style="endArrow=block;endSize=16;endFill=0;html=1;rounded=0;exitX=0.5;exitY=0;exitDx=0;exitDy=0;entryX=0.518;entryY=1.147;entryDx=0;entryDy=0;entryPerimeter=0;" parent="1" source="luiZvTGX7wpIHtlbnvlm-72" target="luiZvTGX7wpIHtlbnvlm-48" edge="1">
          <mxGeometry width="160" relative="1" as="geometry">
            <mxPoint x="272" y="775" as="sourcePoint" />
            <mxPoint x="432" y="775" as="targetPoint" />
          </mxGeometry>
        </mxCell>
        <mxCell id="lZfEsN3OYwq-n7Z0TbKd-1" value="Var&amp;lt;T&amp;gt;" style="swimlane;fontStyle=1;align=center;verticalAlign=top;childLayout=stackLayout;horizontal=1;startSize=26;horizontalStack=0;resizeParent=1;resizeParentMax=0;resizeLast=0;collapsible=1;marginBottom=0;whiteSpace=wrap;html=1;" vertex="1" parent="1">
          <mxGeometry x="-73" y="264" width="210" height="86" as="geometry" />
        </mxCell>
        <mxCell id="lZfEsN3OYwq-n7Z0TbKd-2" value="- node_: std::shared_ptr&amp;lt;Node&amp;lt;T&amp;gt;&amp;gt;" style="text;strokeColor=none;fillColor=none;align=left;verticalAlign=top;spacingLeft=4;spacingRight=4;overflow=hidden;rotatable=0;points=[[0,0.5],[1,0.5]];portConstraint=eastwest;whiteSpace=wrap;html=1;" vertex="1" parent="lZfEsN3OYwq-n7Z0TbKd-1">
          <mxGeometry y="26" width="210" height="26" as="geometry" />
        </mxCell>
        <mxCell id="lZfEsN3OYwq-n7Z0TbKd-5" value="- manager_: GraphManager&amp;lt;T&amp;gt;*" style="text;strokeColor=none;fillColor=none;align=left;verticalAlign=top;spacingLeft=4;spacingRight=4;overflow=hidden;rotatable=0;points=[[0,0.5],[1,0.5]];portConstraint=eastwest;whiteSpace=wrap;html=1;" vertex="1" parent="lZfEsN3OYwq-n7Z0TbKd-1">
          <mxGeometry y="52" width="210" height="26" as="geometry" />
        </mxCell>
        <mxCell id="lZfEsN3OYwq-n7Z0TbKd-3" value="" style="line;strokeWidth=1;fillColor=none;align=left;verticalAlign=middle;spacingTop=-1;spacingLeft=3;spacingRight=3;rotatable=0;labelPosition=right;points=[];portConstraint=eastwest;strokeColor=inherit;" vertex="1" parent="lZfEsN3OYwq-n7Z0TbKd-1">
          <mxGeometry y="78" width="210" height="8" as="geometry" />
        </mxCell>
        <mxCell id="lZfEsN3OYwq-n7Z0TbKd-12" value="Use" style="endArrow=open;endSize=12;dashed=1;html=1;rounded=0;exitX=0.525;exitY=1.073;exitDx=0;exitDy=0;exitPerimeter=0;entryX=0.5;entryY=0;entryDx=0;entryDy=0;" edge="1" parent="1" source="luiZvTGX7wpIHtlbnvlm-4" target="luiZvTGX7wpIHtlbnvlm-6">
          <mxGeometry width="160" relative="1" as="geometry">
            <mxPoint x="-97" y="651" as="sourcePoint" />
            <mxPoint x="63" y="651" as="targetPoint" />
          </mxGeometry>
        </mxCell>
        <mxCell id="lZfEsN3OYwq-n7Z0TbKd-13" value="Creates" style="endArrow=open;endSize=12;dashed=1;html=1;rounded=0;exitX=1;exitY=0.5;exitDx=0;exitDy=0;entryX=0;entryY=0.5;entryDx=0;entryDy=0;" edge="1" parent="1" source="luiZvTGX7wpIHtlbnvlm-2" target="lZfEsN3OYwq-n7Z0TbKd-2">
          <mxGeometry width="160" relative="1" as="geometry">
            <mxPoint x="-294" y="541" as="sourcePoint" />
            <mxPoint x="-134" y="541" as="targetPoint" />
          </mxGeometry>
        </mxCell>
        <mxCell id="lZfEsN3OYwq-n7Z0TbKd-19" value="return manager_.new_ind_node()" style="text;html=1;align=center;verticalAlign=middle;resizable=0;points=[];autosize=1;strokeColor=default;fillColor=none;" vertex="1" parent="1">
          <mxGeometry x="-663" y="298" width="196" height="26" as="geometry" />
        </mxCell>
        <mxCell id="lZfEsN3OYwq-n7Z0TbKd-20" value="" style="endArrow=none;dashed=1;html=1;rounded=0;exitX=0.999;exitY=0.659;exitDx=0;exitDy=0;exitPerimeter=0;entryX=0;entryY=0.5;entryDx=0;entryDy=0;" edge="1" parent="1" source="lZfEsN3OYwq-n7Z0TbKd-19" target="luiZvTGX7wpIHtlbnvlm-4">
          <mxGeometry width="50" height="50" relative="1" as="geometry">
            <mxPoint x="-601" y="549" as="sourcePoint" />
            <mxPoint x="-540" y="579" as="targetPoint" />
          </mxGeometry>
        </mxCell>
      </root>
    </mxGraphModel>
  </diagram>
</mxfile>
